# xmcd
#
# Track frame offsets: 
#        183
#        11045
#        24865
#        37195
#        60005
#        78095
#        92010
#        104758
#        115048
#        128110
#        144423
#        155448
#        179728
#        188135
#
# Disc length: 2716 seconds
#
# Revision: 1
# Processed by: cddbd v1.5.1PL2 Copyright (c) Steve Scherf et al.
# Submitted via: ExactAudioCopy v0.95b3
#
DISCID=ae0a9a0e
DTITLE=Various Artist - Really got the blues
DYEAR=1992
DGENRE=blues
TTITLE0=Little Walter - Blue Midnight
TTITLE1=Jeff Beck - Jeff's Blues
TTITLE2=Eric Clapton - Freight Loader
TTITLE3=John Mayall - Baby What You Want Me To Do
TTITLE4=Jimi Hendrix - Good  Feeling
TTITLE5=Eric Clapton - Draggin' My Tail
TTITLE6=Howlin' Wolf - Killing Floor
TTITLE7=John Mayall - Road Show
TTITLE8=Elmore James - Dust My Broom
TTITLE9=Rod Stewart - I Just Got Some
TTITLE10=Eric Clampton - Snake Drive
TTITLE11=Jimi Hendrix - Bleeding Heart
TTITLE12=Johnny Guitar Watson - Looking Back
TTITLE13=Johnny Winter - Self Destruction Blues
EXTD=That's Blues
EXTT0=Little Walter
EXTT1=Jeff Beck
EXTT2=Eric Clapton
EXTT3=John Mayall
EXTT4=Jimi Hendrix
EXTT5=Eric Clapton
EXTT6=Howlin' Wolf
EXTT7=John Mayall
EXTT8=Elmore James
EXTT9=Rod Stewart
EXTT10=Eric Clapton
EXTT11=Jimi Hendrix
EXTT12=Johnny Guitar Watson
EXTT13=Johnny Winter
PLAYORDER=
